<?xml version="1.0" encoding="UTF-8" standalone="no"?>
<!-- Generator: Adobe Illustrator 19.2.1, SVG Export Plug-In . SVG Version: 6.00 Build 0)  -->

<svg
   xmlns:osb="http://www.openswatchbook.org/uri/2009/osb"
   xmlns:dc="http://purl.org/dc/elements/1.1/"
   xmlns:cc="http://creativecommons.org/ns#"
   xmlns:rdf="http://www.w3.org/1999/02/22-rdf-syntax-ns#"
   xmlns:svg="http://www.w3.org/2000/svg"
   xmlns="http://www.w3.org/2000/svg"
   xmlns:xlink="http://www.w3.org/1999/xlink"
   xmlns:sodipodi="http://sodipodi.sourceforge.net/DTD/sodipodi-0.dtd"
   xmlns:inkscape="http://www.inkscape.org/namespaces/inkscape"
   version="1.2"
   id="Layer_1"
   x="0px"
   y="0px"
   viewBox="0 0 50.8 50.8"
   xml:space="preserve"
   inkscape:version="0.48.4 r9939"
   width="100%"
   height="100%"
   sodipodi:docname="color_bulb.svg"
   inkscape:export-filename="E:\projects\HueMatch\app\src\main\res\drawable-xhdpi\color_bulb.png"
   inkscape:export-xdpi="113.38583"
   inkscape:export-ydpi="113.38583"><metadata
   id="metadata9"><rdf:RDF><cc:Work
       rdf:about=""><dc:format>image/svg+xml</dc:format><dc:type
         rdf:resource="http://purl.org/dc/dcmitype/StillImage" /><dc:title></dc:title></cc:Work></rdf:RDF></metadata><defs
   id="defs7"><linearGradient
     id="linearGradient5264"
     osb:paint="solid"><stop
       style="stop-color:#000000;stop-opacity:1;"
       offset="0"
       id="stop5266" /></linearGradient><linearGradient
     id="linearGradient3810"><stop
       style="stop-color:#8fffc4;stop-opacity:1;"
       offset="0"
       id="stop3812" /><stop
       style="stop-color:#ff0000;stop-opacity:1;"
       offset="1"
       id="stop3814" /></linearGradient><linearGradient
     gradientTransform="matrix(0.950226,0,0,0.868966,0.142211,18.84154)"
     gradientUnits="userSpaceOnUse"
     xlink:href="#linearGradient28888"
     id="linearGradient28894"
     y2="102.36218"
     x2="634.28571"
     y1="102.36218"
     x1="2.8571429" /><linearGradient
     id="linearGradient28888"><stop
       id="stop28890"
       offset="0"
       style="stop-color:black;stop-opacity:1" /><stop
       id="stop29799"
       offset="0.05"
       style="stop-color:#35005e;stop-opacity:1" /><stop
       id="stop28896"
       offset="0.1"
       style="stop-color:#5000a2;stop-opacity:1" /><stop
       id="stop29801"
       offset="0.15000001"
       style="stop-color:#4a00d3;stop-opacity:1" /><stop
       id="stop28898"
       offset="0.2"
       style="stop-color:#2802e9;stop-opacity:1" /><stop
       id="stop29803"
       offset="0.25"
       style="stop-color:#0e3af8;stop-opacity:1" /><stop
       id="stop28900"
       offset="0.30000001"
       style="stop-color:#018de6;stop-opacity:1" /><stop
       id="stop29805"
       offset="0.35000002"
       style="stop-color:#00cea0;stop-opacity:1" /><stop
       id="stop28902"
       offset="0.40000001"
       style="stop-color:#00d24a;stop-opacity:1" /><stop
       id="stop29807"
       offset="0.44999999"
       style="stop-color:#00bc0d;stop-opacity:1" /><stop
       id="stop28904"
       offset="0.5"
       style="stop-color:#00b700;stop-opacity:1" /><stop
       id="stop29809"
       offset="0.55000001"
       style="stop-color:#00bc0d;stop-opacity:1" /><stop
       id="stop28906"
       offset="0.60000002"
       style="stop-color:#65d200;stop-opacity:1" /><stop
       id="stop29811"
       offset="0.64999998"
       style="stop-color:#bad600;stop-opacity:1" /><stop
       id="stop28908"
       offset="0.69999999"
       style="stop-color:#f9b700;stop-opacity:1" /><stop
       id="stop29813"
       offset="0.75"
       style="stop-color:#ff7a00;stop-opacity:1" /><stop
       id="stop28910"
       offset="0.80000001"
       style="stop-color:#f40;stop-opacity:1" /><stop
       id="stop29815"
       offset="0.85000002"
       style="stop-color:#ff2501;stop-opacity:1" /><stop
       id="stop28912"
       offset="0.89999998"
       style="stop-color:#d00e00;stop-opacity:1" /><stop
       id="stop29817"
       offset="0.94999999"
       style="stop-color:#7b0200;stop-opacity:1" /><stop
       id="stop28892"
       offset="1"
       style="stop-color:black;stop-opacity:1" /></linearGradient><linearGradient
     inkscape:collect="always"
     xlink:href="#linearGradient3810"
     id="linearGradient3816"
     x1="2.8571429"
     y1="107.79076"
     x2="602.85714"
     y2="107.79076"
     gradientUnits="userSpaceOnUse" /><linearGradient
     inkscape:collect="always"
     xlink:href="#linearGradient5264"
     id="linearGradient5268"
     x1="11.392922"
     y1="8.3224665"
     x2="39.456895"
     y2="8.3224665"
     gradientUnits="userSpaceOnUse" /><linearGradient
     inkscape:collect="always"
     xlink:href="#linearGradient28888"
     id="linearGradient5290"
     x1="11.392922"
     y1="8.3224669"
     x2="39.456894"
     y2="8.3224669"
     gradientUnits="userSpaceOnUse" /></defs><sodipodi:namedview
   pagecolor="#ffffff"
   bordercolor="#666666"
   borderopacity="1"
   objecttolerance="10"
   gridtolerance="10"
   guidetolerance="10"
   inkscape:pageopacity="0"
   inkscape:pageshadow="2"
   inkscape:window-width="1915"
   inkscape:window-height="978"
   id="namedview5"
   showgrid="false"
   inkscape:zoom="4.6456693"
   inkscape:cx="-42.082203"
   inkscape:cy="25.4"
   inkscape:window-x="0"
   inkscape:window-y="0"
   inkscape:window-maximized="0"
   inkscape:current-layer="Layer_1" />
<path
   fill="none"
   stroke="#000000"
   stroke-width="0.8"
   stroke-miterlimit="10"
   d="M38.3,3.2C34.8,0.9,29,0.4,25.4,0.4  c-3.6,0-9.4,0.5-12.9,2.8c-3.5,2.3,0.9,9.5,2.1,12.5c2.5,7.3,3.7,20.5,3.7,20.5l1.7,2.1v8.1c0,1,1.3,1.6,2.3,1.9  c0.2,0.4,0.7,1.1,1.3,1.8c0.4,0.1,1.1,0.2,1.8,0.2c0.7,0,1.4-0.1,1.8-0.2c0.6-0.8,1.1-1.4,1.3-1.8c1-0.3,2.3-0.9,2.3-1.9v-8.1  l1.7-2.1c0,0,1.2-13.2,3.7-20.5C37.4,12.7,41.9,5.5,38.3,3.2z M20,38.4h10.9 M14.3,15c2.9,1.5,16.7,2.2,22.3-0.2 M31.5,40l-6.3,0.8  l-0.1,0l-5.9,0.7 M31.6,42.1l-6.2,0.8l0,0l-5.9,0.7 M31.5,44.2l-6.3,0.8l-0.1,0l-5.9,0.7"
   id="path3" />
<path
   style="fill:url(#linearGradient5290);fill-opacity:1.0;fill-rule:nonzero;stroke:url(#linearGradient5268);stroke-width:0.64576274000000000;stroke-linecap:butt;stroke-linejoin:miter;stroke-miterlimit:4;stroke-opacity:1;stroke-dasharray:none;stroke-dashoffset:0"
   d="M 19.836934,15.611887 C 18.511208,15.478457 16.309899,15.09472 15.495646,14.855105 14.768194,14.641034 14.630384,14.459717 13.744577,12.551221 12.622231,10.133097 11.918742,7.9708595 11.749798,6.4200907 11.570237,4.7718679 12.073601,3.9995865 13.942073,3.0566102 19.037509,0.48505657 29.455441,0.18915137 35.484051,2.4447437 c 3.166026,1.184562 4.000552,2.2981509 3.526807,4.7061573 -0.28733,1.4604681 -0.91054,3.187296 -2.03446,5.637211 -0.755818,1.647528 -0.769493,1.661844 -1.900803,1.989756 -2.308229,0.669044 -5.549268,0.97162 -10.072559,0.94035 -2.426992,-0.01678 -4.751737,-0.06463 -5.166102,-0.106331 z"
   id="path3818"
   inkscape:connector-curvature="0" /></svg>