<?xml version="1.0" encoding="UTF-8" standalone="no"?>
<!-- Generator: Adobe Illustrator 19.2.1, SVG Export Plug-In . SVG Version: 6.00 Build 0)  -->

<svg
   xmlns:dc="http://purl.org/dc/elements/1.1/"
   xmlns:cc="http://creativecommons.org/ns#"
   xmlns:rdf="http://www.w3.org/1999/02/22-rdf-syntax-ns#"
   xmlns:svg="http://www.w3.org/2000/svg"
   xmlns="http://www.w3.org/2000/svg"
   xmlns:sodipodi="http://sodipodi.sourceforge.net/DTD/sodipodi-0.dtd"
   xmlns:inkscape="http://www.inkscape.org/namespaces/inkscape"
   version="1.2"
   id="Layer_1"
   x="0px"
   y="0px"
   viewBox="0 0 50.8 50.8"
   xml:space="preserve"
   inkscape:version="0.48.4 r9939"
   width="100%"
   height="100%"
   sodipodi:docname="dimming_bulb.svg"
   inkscape:export-filename="E:\projects\HueMatch\app\src\main\res\drawable-xhdpi\dimming_bulb.png"
   inkscape:export-xdpi="113.39"
   inkscape:export-ydpi="113.39"><metadata
   id="metadata19"><rdf:RDF><cc:Work
       rdf:about=""><dc:format>image/svg+xml</dc:format><dc:type
         rdf:resource="http://purl.org/dc/dcmitype/StillImage" /><dc:title></dc:title></cc:Work></rdf:RDF></metadata><defs
   id="defs17" /><sodipodi:namedview
   pagecolor="#ffffff"
   bordercolor="#666666"
   borderopacity="1"
   objecttolerance="10"
   gridtolerance="10"
   guidetolerance="10"
   inkscape:pageopacity="0"
   inkscape:pageshadow="2"
   inkscape:window-width="1188"
   inkscape:window-height="814"
   id="namedview15"
   showgrid="false"
   inkscape:zoom="4.6456693"
   inkscape:cx="25.4"
   inkscape:cy="25.4"
   inkscape:window-x="0"
   inkscape:window-y="0"
   inkscape:window-maximized="0"
   inkscape:current-layer="Layer_1" />
<path
   stroke-miterlimit="10"
   d="m 30.498344,13.050962 c 0,-8.4241488 -6.604087,-11.5832049 -13.308235,-11.5832049 -6.704149,0 -14.2087928,3.1590561 -14.2087928,11.5832049 0,9.668626 5.6034676,11.20029 6.5040248,15.603822 l 0.700434,7.371131 1.60099,2.010308 v 7.658318 c 0,0.861561 1.300805,1.531664 2.301424,1.723122 0.200124,0.382916 0.700434,1.053018 1.300805,1.723121 0.400248,0.09573 1.100681,0.191458 1.801115,0.191458 0.700433,0 1.400867,-0.09573 1.801114,-0.191458 0.600372,-0.670103 1.100681,-1.340205 1.300805,-1.723121 1.000619,-0.287187 2.301424,-0.861561 2.301424,-1.723122 v -7.658318 l 1.600991,-2.010308 c 0,0 0.400248,-4.212075 0.700434,-7.371131 1.400866,-6.030925 5.603467,-6.126654 5.603467,-15.603822 z"
   id="path3"
   inkscape:connector-curvature="0"
   style="fill:none;stroke:#000000;stroke-width:0.7829718;stroke-miterlimit:10" />
<line
   stroke-miterlimit="10"
   x1="11.986889"
   y1="37.940495"
   x2="22.593452"
   y2="37.940495"
   id="line5"
   style="fill:none;stroke:#000000;stroke-width:0.7829718;stroke-miterlimit:10" />
<path
   stroke-miterlimit="10"
   d="m 3.9819354,18.986158 c 5.9036533,0.765832 20.2125076,0.765832 25.8159756,0"
   id="path7"
   inkscape:connector-curvature="0"
   style="fill:none;stroke:#000000;stroke-width:0.7829718;stroke-miterlimit:10" />
<polyline
   stroke-miterlimit="10"
   points="31.8,40.2 25.7,40.9 25.7,41 19.9,41.7   "
   id="polyline9"
   transform="matrix(1.0006192,0,0,0.95728972,-8.6258666,1.0848412)"
   style="fill:none;stroke:#000000;stroke-width:0.80000001;stroke-miterlimit:10" />
<polyline
   stroke-miterlimit="10"
   points="31.9,42.2 25.8,43 25.8,43 20,43.7 "
   id="polyline11"
   transform="matrix(1.0006192,0,0,0.95728972,-8.6258666,1.0848412)"
   style="fill:none;stroke:#000000;stroke-width:0.80000001;stroke-miterlimit:10" />
<polyline
   stroke-miterlimit="10"
   points="31.8,44.2 25.7,45 25.7,45 19.9,45.7 "
   id="polyline13"
   transform="matrix(1.0006192,0,0,0.95728972,-8.6258666,1.0848412)"
   style="fill:none;stroke:#000000;stroke-width:0.80000001;stroke-miterlimit:10" />
<g
   transform="matrix(0.60188087,0,0,0.60188087,24.396539,18.666931)"
   id="g3"><path
     style="fill:none;stroke:#000000;stroke-width:0.80000001;stroke-miterlimit:10"
     inkscape:connector-curvature="0"
     stroke-miterlimit="10"
     d="M 39.1,50.5 H 11.8 c -1.1,0 -1.9,-0.9 -1.9,-1.9 V 2.4 c 0,-1.1 0.9,-1.9 1.9,-1.9 h 27.3 c 1.1,0 1.9,0.9 1.9,1.9 v 46.1 c 0,1.1 -0.8,2 -1.9,2 z"
     id="path5" /><path
     style="fill:none;stroke:#000000;stroke-width:0.80000001;stroke-miterlimit:10"
     inkscape:connector-curvature="0"
     stroke-miterlimit="10"
     d="M 31.3,44.5 H 19.6 c -0.8,0 -1.5,-0.7 -1.5,-1.5 V 7.9 c 0,-0.8 0.7,-1.5 1.5,-1.5 h 11.7 c 0.8,0 1.5,0.7 1.5,1.5 V 43 c 0,0.9 -0.7,1.5 -1.5,1.5 z"
     id="path7-1" /><line
     style="fill:none;stroke:#000000;stroke-width:0.80000001;stroke-miterlimit:10"
     stroke-miterlimit="10"
     x1="18.1"
     y1="18.4"
     x2="32.799999"
     y2="18.4"
     id="line9" /><line
     style="fill:none;stroke:#000000;stroke-width:0.80000001;stroke-miterlimit:10"
     stroke-miterlimit="10"
     x1="18.1"
     y1="25.5"
     x2="32.799999"
     y2="25.5"
     id="line11" /><line
     style="fill:none;stroke:#000000;stroke-width:0.80000001;stroke-miterlimit:10"
     stroke-miterlimit="10"
     x1="18.1"
     y1="32.900002"
     x2="32.799999"
     y2="32.900002"
     id="line13" /></g></svg>