<svg xmlns="http://www.w3.org/2000/svg" xmlns:xlink="http://www.w3.org/1999/xlink" version="1.1" x="0px" y="0px" viewBox="0 0 73 91.25" enable-background="new 0 0 73 73" xml:space="preserve"><g><path d="M9.1,49c-0.6,0-1.3,0.3-1.6,0.8c-1.2,1.6-7,10-7,14.1c0,4.8,3.9,8.6,8.6,8.6c4.8,0,8.6-3.9,8.6-8.6c0-4.1-5.8-12.4-7-14.1   C10.4,49.3,9.8,49,9.1,49z M9.1,68.5c-2.5,0-4.6-2.1-4.6-4.6c0-1.5,2.2-5.6,4.6-9.4c2.4,3.7,4.6,7.8,4.6,9.4   C13.7,66.4,11.7,68.5,9.1,68.5z"/><path d="M70.7,6.3C68.4,2.6,62-2.2,53.9,2.3l-6.7,4.2l0,0c-0.6-0.9-1.8-1.2-2.8-0.6c-0.9,0.6-1.2,1.8-0.6,2.8l1.4,2.3l-14.1,8.7   c-9.1,5.7-16.8,13.6-22.2,22.9c-0.4,0.6-0.4,1.4,0,2c0.7,1,1.8,0.9,1.8,0.9c10.7-0.6,21.2-4,30.4-9.7l14.1-8.7l1.4,2.3   c0.5,0.9,1.8,1.2,2.8,0.6c1-0.6,1.2-1.8,0.6-2.8l0,0l6.7-4.2C72.4,19.5,74.2,12,70.7,6.3z M39.1,32.4C31.6,37,23.2,40,14.5,41.1   c2.5-3.8,5.4-7.2,8.7-10.4h18.6L39.1,32.4z M48.2,26.7H27.8c1.7-1.4,3.6-2.6,5.4-3.8l14.1-8.7l5.9,9.5L48.2,26.7z M64.6,19.6   l-6.7,4.2L49.3,9.9L56,5.7c5.5-3,9.8,0.2,11.3,2.6C69.7,12.2,68.5,17.3,64.6,19.6z"/></g><text x="0" y="88" fill="#000000" font-size="5px" font-weight="bold" font-family="'Helvetica Neue', Helvetica, Arial-Unicode, Arial, Sans-serif">Created by Icon Fair</text><text x="0" y="93" fill="#000000" font-size="5px" font-weight="bold" font-family="'Helvetica Neue', Helvetica, Arial-Unicode, Arial, Sans-serif">from the Noun Project</text></svg>